<svg width="34" height="34" viewBox="0 0 34 34" fill="none" xmlns="http://www.w3.org/2000/svg">
<path fill-rule="evenodd" clip-rule="evenodd" d="M16.9887 4.25C9.90833 4.25 4.22867 9.84604 4.25 16.6872L4.25 16.6889V16.6906C4.24992 19.0704 4.94549 21.398 6.25084 23.3874C6.3254 23.4892 6.39514 23.5945 6.45985 23.7029L6.46499 23.7115L6.46996 23.7202C6.57472 23.9034 6.69894 24.1503 6.78455 24.4228C6.8629 24.6723 6.95313 25.0789 6.83522 25.5129L6.8346 25.5152L5.73718 29.4848L9.53218 28.1152C9.90948 27.96 10.3138 27.8807 10.722 27.882C10.7226 27.882 10.7233 27.882 10.724 27.882L10.72 28.9445L10.7212 27.882C10.7214 27.882 10.7217 27.882 10.722 27.882C11.1041 27.8825 11.4829 27.9531 11.8396 28.0902L11.8404 28.0905L11.8412 28.0908C12.0565 28.174 12.9145 28.4927 13.7629 28.7301C14.5968 28.9636 16.137 29.2466 17.2264 29.2466C24.2715 29.2466 29.7498 23.5901 29.75 16.7009L30.8125 16.7005H29.75C29.7497 15.8459 29.6592 14.9937 29.4801 14.158L29.4798 14.1569L29.4796 14.1558C28.2847 8.5226 23.1587 4.25 16.9887 4.25ZM2.125 16.6922C2.10077 8.62596 8.78294 2.125 16.9887 2.125C24.1499 2.125 30.1518 7.0874 31.558 13.7133C31.7684 14.695 31.8747 15.6962 31.875 16.7001V16.7005C31.875 24.7406 25.468 31.3716 17.2264 31.3716C15.8855 31.3716 14.1451 31.0438 13.1901 30.7765C12.2507 30.5136 11.3235 30.1688 11.0766 30.0735C10.9624 30.0297 10.8411 30.0071 10.7188 30.007L10.7174 30.007L10.7159 30.007C10.5838 30.0065 10.453 30.0328 10.3314 30.0843L10.3049 30.0955L5.79856 31.7218C5.61147 31.7986 5.41433 31.8482 5.21309 31.8692L5.15642 31.8752L5.09945 31.875C4.87455 31.8743 4.65202 31.829 4.44475 31.7417C4.23748 31.6544 4.04959 31.5269 3.89197 31.3665C3.73435 31.206 3.61012 31.0159 3.52649 30.8071C3.44286 30.5984 3.40148 30.3751 3.40477 30.1502L3.40523 30.1183L3.40762 30.0864C3.41849 29.9411 3.44437 29.7972 3.48482 29.6572L4.75648 25.0573C4.73329 24.9844 4.68903 24.8877 4.63025 24.7838C4.59827 24.7309 4.56375 24.6795 4.5268 24.6299L4.50863 24.6055L4.49189 24.5801C2.94818 22.239 2.12524 19.4964 2.125 16.6922Z" fill="#21272A"/>
</svg>
