<svg width="34" height="34" viewBox="0 0 34 34" fill="none" xmlns="http://www.w3.org/2000/svg">
<path d="M5.102 31.875C4.65036 31.8729 4.21798 31.6918 3.89967 31.3713C3.58136 31.0509 3.40311 30.6174 3.40399 30.1657C3.40795 29.994 3.43475 29.8236 3.48368 29.659L4.70688 25.2344C4.75802 25.071 4.70024 24.9063 4.62521 24.7762L4.6106 24.7496C4.60528 24.741 4.58005 24.7058 4.56212 24.6799C4.54419 24.654 4.5236 24.6261 4.50501 24.5989L4.49239 24.5809C2.94789 22.24 2.12471 19.4971 2.12501 16.6925C2.11306 12.8682 3.60919 9.25504 6.33915 6.51379C9.16407 3.68356 12.9426 2.125 16.9881 2.125C20.4199 2.12331 23.75 3.29064 26.4297 5.43469C29.0494 7.54309 30.8703 10.4816 31.5569 13.7142C31.7683 14.6963 31.8747 15.698 31.8743 16.7025C31.8743 20.6158 30.3709 24.2914 27.6403 27.0532C24.8858 29.8423 21.1869 31.3736 17.2258 31.3736C15.8313 31.3736 14.0469 31.0177 13.1903 30.776C12.1597 30.4878 11.1828 30.1119 11.0752 30.0721C10.9614 30.0285 10.8406 30.006 10.7186 30.0057C10.5864 30.0049 10.4554 30.0308 10.3335 30.082L10.277 30.1039L5.79595 31.7229C5.57586 31.8156 5.34066 31.8671 5.102 31.875Z" fill="#21272A"/>
</svg>
