<svg width="30" height="30" viewBox="0 0 30 30" fill="none" xmlns="http://www.w3.org/2000/svg">
<g clip-path="url(#clip0_159_1159)">
<path d="M25.3968 5.45064C23.4515 4.55789 21.3988 3.92072 19.29 3.55501C19.2708 3.5518 19.2512 3.55457 19.2338 3.56297C19.2163 3.57136 19.2019 3.58496 19.1924 3.60189C18.9281 4.07064 18.6356 4.68376 18.4312 5.16376C16.158 4.81878 13.8457 4.81878 11.5725 5.16376C11.3445 4.62905 11.0866 4.1076 10.8 3.60189C10.7903 3.58514 10.7759 3.5717 10.7585 3.56334C10.7411 3.55497 10.7215 3.55207 10.7025 3.55501C8.59308 3.91876 6.53995 4.55626 4.59558 5.45064C4.57894 5.45699 4.56502 5.46892 4.5562 5.48439C0.667451 11.295 -0.399425 16.9631 0.1237 22.56C0.125575 22.5863 0.14245 22.6125 0.163075 22.6294C2.42756 24.3068 4.96043 25.5875 7.6537 26.4169C7.67272 26.4229 7.69315 26.4227 7.71203 26.4163C7.73091 26.4099 7.74726 26.3976 7.7587 26.3813C8.3362 25.5938 8.84995 24.7631 9.29245 23.8894C9.30167 23.8714 9.30483 23.8509 9.30145 23.831C9.29807 23.811 9.28834 23.7927 9.2737 23.7788C9.26401 23.7696 9.25251 23.7626 9.23995 23.7581C8.43213 23.4477 7.64975 23.0747 6.89995 22.6425C6.87901 22.6306 6.86343 22.6112 6.85645 22.5881C6.84947 22.5651 6.85162 22.5403 6.86245 22.5188C6.86883 22.5048 6.87848 22.4926 6.89058 22.4831C7.04808 22.365 7.20558 22.2413 7.35558 22.1175C7.36883 22.1069 7.38472 22.1 7.40157 22.0977C7.41841 22.0954 7.43557 22.0977 7.4512 22.1044C12.3618 24.3469 17.6775 24.3469 22.5281 22.1044C22.5443 22.0974 22.5621 22.0949 22.5796 22.0972C22.5971 22.0995 22.6136 22.1065 22.6274 22.1175C22.7775 22.2413 22.9349 22.365 23.0925 22.4831C23.1052 22.4925 23.1155 22.5048 23.1223 22.5191C23.1291 22.5333 23.1323 22.5491 23.1316 22.5648C23.1308 22.5806 23.1262 22.596 23.118 22.6095C23.1099 22.6231 23.0985 22.6344 23.085 22.6425C22.3369 23.0786 21.5535 23.4512 20.7431 23.7563C20.7301 23.7609 20.7184 23.7684 20.7087 23.7781C20.699 23.7878 20.6915 23.7996 20.6868 23.8125C20.6825 23.825 20.6808 23.8383 20.6817 23.8515C20.6827 23.8647 20.6863 23.8776 20.6925 23.8894C21.1425 24.7613 21.6581 25.5938 22.2243 26.3813C22.2358 26.3976 22.2521 26.4099 22.271 26.4163C22.2899 26.4227 22.3103 26.4229 22.3293 26.4169C25.0271 25.5901 27.5641 24.3092 29.8312 22.6294C29.8426 22.6215 29.852 22.6112 29.8588 22.5992C29.8656 22.5872 29.8696 22.5738 29.8706 22.56C30.4968 16.0894 28.8224 10.4681 25.4343 5.48626C25.4309 5.47803 25.4258 5.47061 25.4193 5.46448C25.4129 5.45834 25.4052 5.45363 25.3968 5.45064ZM10.0256 19.1513C8.5462 19.1513 7.32933 17.7938 7.32933 16.1288C7.32933 14.4619 8.5237 13.1044 10.0256 13.1044C11.5387 13.1044 12.7443 14.4731 12.7218 16.1288C12.7218 17.7938 11.5275 19.1513 10.0256 19.1513ZM19.9931 19.1513C18.5156 19.1513 17.2968 17.7938 17.2968 16.1288C17.2968 14.4619 18.4912 13.1044 19.9931 13.1044C21.5062 13.1044 22.7137 14.4731 22.6893 16.1288C22.6893 17.7938 21.5062 19.1513 19.9931 19.1513Z" fill="#5865F2"/>
</g>
<defs>
<clipPath id="clip0_159_1159">
<rect width="30" height="30" fill="white"/>
</clipPath>
</defs>
</svg>
