<svg width="34" height="34" viewBox="0 0 34 34" fill="none" xmlns="http://www.w3.org/2000/svg">
<path fill-rule="evenodd" clip-rule="evenodd" d="M6.90625 6.375C6.48356 6.375 6.07818 6.54291 5.7793 6.8418C5.48041 7.14068 5.3125 7.54606 5.3125 7.96875V12.75C5.3125 13.3368 4.8368 13.8125 4.25 13.8125C3.6632 13.8125 3.1875 13.3368 3.1875 12.75V7.96875C3.1875 6.98248 3.5793 6.0366 4.2767 5.3392C4.9741 4.6418 5.91998 4.25 6.90625 4.25H11.9458C12.68 4.25002 13.3979 4.46738 14.0087 4.8747C14.0088 4.87471 14.0088 4.87473 14.0088 4.87475L15.8576 6.10725C16.1194 6.28182 16.427 6.37499 16.7417 6.375C16.7417 6.375 16.7417 6.375 16.7417 6.375H27.0938C28.08 6.375 29.0259 6.7668 29.7233 7.4642C30.4207 8.1616 30.8125 9.10748 30.8125 10.0938V12.75C30.8125 13.3368 30.3368 13.8125 29.75 13.8125C29.1632 13.8125 28.6875 13.3368 28.6875 12.75V10.0938C28.6875 9.67106 28.5196 9.26568 28.2207 8.9668C27.9218 8.66791 27.5164 8.5 27.0938 8.5H16.7417C16.0075 8.49998 15.2896 8.28262 14.6788 7.8753C14.6787 7.87529 14.6787 7.87527 14.6787 7.87525L12.8299 6.64275C12.5681 6.46818 12.2605 6.37501 11.9458 6.375C11.9458 6.375 11.9458 6.375 11.9458 6.375H6.90625Z" fill="#21272A"/>
<path fill-rule="evenodd" clip-rule="evenodd" d="M4.24994 13.8125C4.10327 13.8125 3.95818 13.8429 3.82382 13.9017C3.68946 13.9605 3.56873 14.0465 3.46924 14.1542C3.36974 14.262 3.29363 14.3892 3.24571 14.5278C3.19864 14.6639 3.17975 14.8082 3.19016 14.9518L4.26618 25.9276C4.26955 25.962 4.27125 25.9966 4.27125 26.0313C4.27124 26.4535 4.43877 26.8584 4.73706 27.1572C5.03511 27.4558 5.43937 27.624 5.86122 27.625H28.1388C28.5606 27.624 28.9649 27.4558 29.2629 27.1572C29.5612 26.8584 29.7287 26.4535 29.7287 26.0313C29.7287 25.9966 29.7304 25.962 29.7338 25.9276L30.8098 14.9518C30.8202 14.8085 30.8014 14.6645 30.7546 14.5286C30.7068 14.3902 30.631 14.2632 30.5319 14.1554C30.4327 14.0477 30.3124 13.9617 30.1784 13.9027C30.0449 13.8438 29.9007 13.8131 29.7547 13.8125H4.24994ZM4.25 11.6875C3.81001 11.6875 3.37478 11.7786 2.97171 11.955C2.56863 12.1314 2.20644 12.3894 1.90795 12.7127C1.60946 13.036 1.38114 13.4176 1.23736 13.8334C1.09358 14.2493 1.03745 14.6904 1.07251 15.129C1.07302 15.1353 1.07358 15.1417 1.07421 15.148L2.14667 26.0875C2.16126 27.0523 2.55042 27.9746 3.23314 28.6585C3.92913 29.3557 4.87334 29.7483 5.85849 29.75L5.86035 29.75H28.1396L28.1415 29.75C29.1266 29.7483 30.0709 29.3557 30.7669 28.6585C31.4496 27.9746 31.8387 27.0523 31.8533 26.0876L32.9258 15.148C32.9264 15.1417 32.927 15.1353 32.9275 15.129C32.9625 14.6912 32.9066 14.251 32.7634 13.8358C32.6203 13.4206 32.3928 13.0395 32.0954 12.7164C31.798 12.3932 31.437 12.135 31.0351 11.958C30.6332 11.7809 30.1991 11.6889 29.7599 11.6875L29.7566 11.6875H4.25C4.25001 11.6875 4.24998 11.6875 4.25 11.6875Z" fill="#21272A"/>
</svg>
