<svg width="34" height="34" viewBox="0 0 34 34" fill="none" xmlns="http://www.w3.org/2000/svg">
<path d="M27.0938 6.37501H16.7417C16.4272 6.37601 16.1196 6.28356 15.8578 6.10938L14.0117 4.87489C13.4004 4.4661 12.6812 4.24857 11.9458 4.25001H6.90625C5.9203 4.25106 4.97503 4.6432 4.27786 5.34037C3.58069 6.03754 3.18855 6.98281 3.1875 7.96876V9.56251H30.8125C30.8125 7.51188 29.1444 6.37501 27.0938 6.37501Z" fill="#21272A"/>
<path d="M28.1397 29.75H5.86039C4.88463 29.7489 3.94839 29.3643 3.25359 28.6792C2.55879 27.9941 2.1611 27.0634 2.14629 26.0877L1.07449 15.1479V15.1293C1.0394 14.6909 1.09543 14.2499 1.23907 13.8341C1.38271 13.4184 1.61085 13.0368 1.90913 12.7135C2.2074 12.3903 2.56937 12.1322 2.97224 11.9556C3.37511 11.779 3.81017 11.6877 4.25004 11.6875H29.7567C30.1964 11.6879 30.6314 11.7794 31.0341 11.956C31.4368 12.1327 31.7986 12.3908 32.0967 12.714C32.3949 13.0373 32.6229 13.4188 32.7664 13.8344C32.91 14.2501 32.966 14.691 32.9309 15.1293V15.1479L31.8538 26.0877C31.839 27.0634 31.4413 27.9941 30.7465 28.6792C30.0517 29.3643 29.1155 29.7489 28.1397 29.75Z" fill="#21272A"/>
</svg>
