<svg width="34" height="34" viewBox="0 0 34 34" fill="none" xmlns="http://www.w3.org/2000/svg">
<path d="M17.0004 4.64575C17.2872 4.64581 17.5688 4.72375 17.8148 4.87134L29.1478 11.6711C29.3823 11.8118 29.5766 12.0113 29.7113 12.2493C29.8459 12.4871 29.9164 12.7562 29.9164 13.0295V28.425C29.9164 28.845 29.7494 29.2482 29.4525 29.5452C29.1556 29.8419 28.7532 30.009 28.3334 30.009H22.5004V24.175C22.5003 22.7165 21.9204 21.3177 20.889 20.2864C19.8577 19.255 18.4589 18.6751 17.0004 18.675C15.5417 18.675 14.1422 19.2549 13.1107 20.2864C12.0794 21.3177 11.5005 22.7166 11.5004 24.175V30.009H5.66638C5.24663 30.0089 4.84409 29.8419 4.54724 29.5452C4.25031 29.2482 4.08337 28.845 4.08337 28.425V13.0295C4.08337 12.7563 4.15389 12.4871 4.28845 12.2493C4.42316 12.0113 4.61748 11.8118 4.85193 11.6711L16.1849 4.87134C16.431 4.72369 16.7134 4.64575 17.0004 4.64575Z" stroke="#21272A" stroke-width="2.5"/>
</svg>
