<svg width="34" height="34" viewBox="0 0 34 34" fill="none" xmlns="http://www.w3.org/2000/svg">
<path d="M21.25 31.2588V24.1754C21.25 23.0483 20.8022 21.9673 20.0052 21.1702C19.2082 20.3732 18.1272 19.9254 17 19.9254C15.8728 19.9254 14.7918 20.3732 13.9948 21.1702C13.1978 21.9673 12.75 23.0483 12.75 24.1754V31.2588H5.66668C4.91523 31.2588 4.19456 30.9603 3.66321 30.4289C3.13185 29.8976 2.83334 29.1769 2.83334 28.4254V13.0291C2.83334 12.5398 2.96004 12.0589 3.2011 11.6331C3.44216 11.2074 3.78938 10.8513 4.20893 10.5995L15.5423 3.79953C15.9826 3.53532 16.4865 3.39575 17 3.39575C17.5135 3.39575 18.0174 3.53532 18.4578 3.79953L29.7911 10.5995C30.2106 10.8513 30.5579 11.2074 30.7989 11.6331C31.04 12.0589 31.1667 12.5398 31.1667 13.0291V28.4254C31.1667 29.1769 30.8682 29.8976 30.3368 30.4289C29.8055 30.9603 29.0848 31.2588 28.3333 31.2588H21.25Z" fill="#21272A"/>
</svg>
