<svg width="30" height="30" viewBox="0 0 30 30" fill="none" xmlns="http://www.w3.org/2000/svg">
<path d="M19.0393 3.69632C17.9254 2.49377 16.3697 1.83154 14.6526 1.83154C12.9264 1.83154 11.3655 2.48977 10.2568 3.68487C9.13615 4.89314 8.59011 6.53527 8.71832 8.30846C8.97245 11.8068 11.6345 14.6526 14.6526 14.6526C17.6707 14.6526 20.3282 11.8074 20.5864 8.30961C20.7163 6.55244 20.1668 4.91375 19.0393 3.69632Z" fill="white"/>
<path d="M24.7263 27.4736H4.57898C4.31527 27.477 4.05411 27.4216 3.8145 27.3114C3.57489 27.2012 3.36287 27.039 3.19384 26.8366C2.82181 26.3918 2.67185 25.7845 2.78288 25.1704C3.26596 22.4906 4.77358 20.2394 7.14319 18.6591C9.24836 17.2563 11.915 16.4841 14.6527 16.4841C17.3903 16.4841 20.057 17.2568 22.1621 18.6591C24.5317 20.2389 26.0394 22.49 26.5224 25.1698C26.6335 25.784 26.4835 26.3913 26.1115 26.836C25.9425 27.0385 25.7305 27.2009 25.4909 27.3112C25.2513 27.4215 24.9901 27.477 24.7263 27.4736Z" fill="white"/>
</svg>
