<svg width="34" height="34" viewBox="0 0 34 34" fill="none" xmlns="http://www.w3.org/2000/svg">
<path d="M22.0894 4.28852C20.7972 2.89332 18.9923 2.125 17.0001 2.125C14.9973 2.125 13.1864 2.88867 11.9001 4.27523C10.5998 5.67707 9.96631 7.58227 10.1151 9.63953C10.4099 13.6983 13.4985 17 17.0001 17C20.5017 17 23.5849 13.6989 23.8844 9.64086C24.0351 7.60219 23.3976 5.70098 22.0894 4.28852Z" fill="#21272A"/>
<path d="M28.6874 31.875H5.31239C5.00643 31.879 4.70344 31.8147 4.42545 31.6869C4.14745 31.559 3.90146 31.3708 3.70536 31.1359C3.27372 30.6199 3.09974 29.9154 3.22856 29.2028C3.78903 26.0937 5.53817 23.4819 8.28739 21.6484C10.7298 20.0208 13.8237 19.125 16.9999 19.125C20.1761 19.125 23.27 20.0215 25.7124 21.6484C28.4616 23.4812 30.2108 26.093 30.7712 29.2021C30.9 29.9147 30.7261 30.6193 30.2944 31.1352C30.0984 31.3702 29.8524 31.5586 29.5744 31.6866C29.2964 31.8145 28.9934 31.8789 28.6874 31.875Z" fill="#21272A"/>
</svg>
