<svg width="34" height="34" viewBox="0 0 34 34" fill="none" xmlns="http://www.w3.org/2000/svg">
<path d="M17.0005 17C13.4876 17 10.3931 13.6996 10.0943 9.64219C9.94154 7.58359 10.579 5.67773 11.8872 4.27656C13.1755 2.88867 14.9951 2.125 17.0005 2.125C18.9927 2.125 20.8056 2.89531 22.1005 4.28984C23.4154 5.7043 24.0529 7.60352 23.9001 9.64219C23.6013 13.6996 20.5068 17 17.0005 17ZM17.0005 4.25C15.5927 4.25 14.3243 4.77461 13.4411 5.72422C12.5447 6.68711 12.1064 8.02852 12.2126 9.48945C12.4251 12.4113 14.6165 14.8816 16.9939 14.8816C19.3712 14.8816 21.5626 12.4113 21.7751 9.48945C21.8814 8.04844 21.4431 6.71367 20.5333 5.7375C19.6568 4.77461 18.3951 4.25 17.0005 4.25Z" fill="#21272A"/>
<path d="M28.688 31.875H5.31299C4.67549 31.875 4.1044 31.6093 3.70596 31.1378C3.27432 30.6199 3.10167 29.916 3.22784 29.2054C3.78565 26.0976 5.53878 23.4812 8.28799 21.655C10.7317 20.0281 13.8263 19.1316 17.0005 19.1316C20.1747 19.1316 23.2692 20.0281 25.713 21.655C28.4622 23.4878 30.2153 26.0976 30.7731 29.2054C30.8993 29.916 30.7267 30.6199 30.295 31.1378C29.8966 31.6093 29.3255 31.875 28.688 31.875ZM5.32627 29.75H28.6747C28.688 29.7167 28.6946 29.6636 28.6814 29.5773C27.6521 23.8597 21.9013 21.25 17.0005 21.25C12.0997 21.25 6.34893 23.8597 5.31963 29.5773C5.30635 29.6636 5.31299 29.7167 5.32627 29.75Z" fill="#21272A"/>
</svg>
